<?xml version="1.0" encoding="UTF-8" standalone="no"?>
<!-- Generator: Adobe Illustrator 16.0.0, SVG Export Plug-In . SVG Version: 6.00 Build 0)  -->

<svg
   version="1.1"
   id="Ebene_1"
   x="0px"
   y="0px"
   width="32.883438"
   height="32.88385"
   viewBox="0 0 32.883439 32.883849"
   enable-background="new 0 0 159.448 159.449"
   xml:space="preserve"
   sodipodi:docname="elevator.svg"
   inkscape:version="1.1.1 (3bf5ae0d25, 2021-09-20)"
   xmlns:inkscape="http://www.inkscape.org/namespaces/inkscape"
   xmlns:sodipodi="http://sodipodi.sourceforge.net/DTD/sodipodi-0.dtd"
   xmlns="http://www.w3.org/2000/svg"
   xmlns:svg="http://www.w3.org/2000/svg"><defs
   id="defs19" /><sodipodi:namedview
   id="namedview17"
   pagecolor="#ffffff"
   bordercolor="#666666"
   borderopacity="1.0"
   inkscape:pageshadow="2"
   inkscape:pageopacity="0.0"
   inkscape:pagecheckerboard="0"
   showgrid="false"
   inkscape:zoom="8.4791259"
   inkscape:cx="47.233643"
   inkscape:cy="42.869985"
   inkscape:window-width="2495"
   inkscape:window-height="1417"
   inkscape:window-x="57"
   inkscape:window-y="1072"
   inkscape:window-maximized="1"
   inkscape:current-layer="Ebene_1" />
<g
   id="g14"
   transform="scale(0.206233)">
	<path
   fill="#006699"
   d="m 159.448,149.391 c 0,5.576 -4.53,10.059 -10.108,10.059 H 10.109 C 4.533,159.449 0,154.967 0,149.391 V 10.06 C 0,4.482 4.533,0 10.109,0 H 149.34 c 5.578,0 10.108,4.482 10.108,10.06 z"
   id="path2" />
	<polygon
   fill="#ffffff"
   points="24.445,140.318 135.004,140.318 135.004,37.914 123.866,37.914 123.866,129.182 35.583,129.182 35.582,37.914 24.444,37.914 24.445,37.914 "
   id="polygon4" />
	<polygon
   fill="#ffffff"
   points="74.555,40.531 64.123,30.107 64.123,46.119 56.535,46.119 56.535,30.107 46.103,40.531 46.103,29.811 60.329,15.595 74.555,29.811 "
   id="polygon6" />
	<polygon
   fill="#ffffff"
   points="113.346,21.183 102.914,31.607 102.914,15.595 95.325,15.595 95.325,31.607 84.894,21.183 84.894,31.903 99.119,46.119 113.346,31.903 "
   id="polygon8" />
	<path
   fill="#ffffff"
   d="M 79.293,91.656 75.485,68.384 C 75.283,67.12 73.767,66.03 72.916,65.631 71.04,64.752 68.624,64.259 64.675,64.259 c -3.949,0 -6.368,0.493 -8.243,1.372 -0.852,0.398 -2.368,1.489 -2.566,2.753 L 50.06,91.656 c -0.2,1.273 0.67,2.475 1.944,2.676 0.124,0.016 0.245,0.027 0.367,0.027 1.131,0 2.127,-0.82 2.309,-1.975 H 54.679 L 58.04,72.879 h 1.152 c -1.293,8.644 -2.584,15.771 -3.598,21.947 -0.252,1.541 0.845,2.893 2.339,3.516 v 22.924 h 2.703 c 1.723,0 3.118,-1.398 3.118,-3.119 V 98.713 h 1.841 v 19.434 c 0,1.721 1.399,3.119 3.12,3.119 h 2.702 V 98.342 c 1.496,-0.623 2.594,-1.975 2.338,-3.516 C 72.744,88.65 71.454,81.523 70.158,72.879 h 1.155 l 3.36,19.505 c 0.178,1.154 1.176,1.975 2.303,1.975 0.122,0 0.248,-0.012 0.371,-0.027 1.274,-0.201 2.145,-1.402 1.946,-2.676 M 64.675,62.977 c 2.926,0 5.303,-2.374 5.303,-5.301 0,-2.931 -2.377,-5.305 -5.303,-5.305 -2.928,0 -5.302,2.375 -5.302,5.305 0,2.927 2.374,5.301 5.302,5.301"
   id="path10" />
	<path
   fill="#ffffff"
   d="m 107.701,68.85 c 0,-0.685 -0.365,-1.536 -0.761,-1.837 -2.652,-2.02 -5.556,-2.981 -10.882,-2.981 -5.325,0 -8.229,0.961 -10.881,2.981 -0.396,0.301 -0.762,1.152 -0.762,1.837 l -1.009,23.17 c 0,1.295 1.049,2.34 2.341,2.34 1.29,0 2.338,-1.045 2.338,-2.34 l 0.82,-19.099 h 1.227 l -0.832,14.964 0.002,33.381 h 2.91 c 1.722,0 3.118,-1.398 3.118,-3.119 V 92.752 h 1.454 v 25.395 c 0,1.721 1.397,3.119 3.12,3.119 h 2.908 V 87.885 l -0.83,-14.964 h 1.227 l 0.821,19.099 c 0,1.295 1.047,2.34 2.34,2.34 1.292,0 2.338,-1.045 2.338,-2.34 z M 96.059,62.977 c 2.929,0 5.302,-2.374 5.302,-5.301 0,-2.931 -2.373,-5.305 -5.302,-5.305 -2.928,0 -5.301,2.375 -5.301,5.305 0,2.927 2.373,5.301 5.301,5.301"
   id="path12" />
</g>
</svg>
