<?xml version="1.0" encoding="UTF-8" standalone="no"?>
<!-- Created with Inkscape (http://www.inkscape.org/) -->

<svg
   width="5.8225641mm"
   height="5.8225636mm"
   viewBox="0 0 5.8225641 5.8225636"
   version="1.1"
   id="svg1542"
   inkscape:version="1.1.1 (3bf5ae0d25, 2021-09-20)"
   sodipodi:docname="elevator-grey.svg"
   xmlns:inkscape="http://www.inkscape.org/namespaces/inkscape"
   xmlns:sodipodi="http://sodipodi.sourceforge.net/DTD/sodipodi-0.dtd"
   xmlns="http://www.w3.org/2000/svg"
   xmlns:svg="http://www.w3.org/2000/svg">
  <sodipodi:namedview
     id="namedview1544"
     pagecolor="#ffffff"
     bordercolor="#666666"
     borderopacity="1.0"
     inkscape:pageshadow="2"
     inkscape:pageopacity="0.0"
     inkscape:pagecheckerboard="0"
     inkscape:document-units="mm"
     showgrid="false"
     inkscape:zoom="19.270763"
     inkscape:cx="-2.4908199"
     inkscape:cy="17.773038"
     inkscape:window-width="2495"
     inkscape:window-height="1417"
     inkscape:window-x="57"
     inkscape:window-y="1072"
     inkscape:window-maximized="1"
     inkscape:current-layer="layer1" />
  <defs
     id="defs1539" />
  <g
     inkscape:label="Layer 1"
     inkscape:groupmode="layer"
     id="layer1"
     transform="translate(-164.51261,-66.592496)">
    <path
       style="fill:#cccccc;fill-opacity:1;stroke:#ffffff;stroke-width:0.2;stroke-miterlimit:4;stroke-dasharray:none;stroke-opacity:1"
       id="path1850-0-0"
       sodipodi:type="arc"
       sodipodi:cx="167.42389"
       sodipodi:cy="69.503777"
       sodipodi:rx="2.7797997"
       sodipodi:ry="2.7797997"
       sodipodi:start="5.5410189"
       sodipodi:end="5.5409317"
       sodipodi:open="true"
       sodipodi:arc-type="arc"
       d="m 169.47262,67.624948 a 2.7797997,2.7797997 0 0 1 -0.16986,3.927517 2.7797997,2.7797997 0 0 1 -3.92752,-0.169771 2.7797997,2.7797997 0 0 1 0.16969,-3.927524 2.7797997,2.7797997 0 0 1 3.92752,0.1696" />
    <rect
       x="167.02701"
       y="69.00106"
       class="st1"
       width="0.39687499"
       height="0.13229166"
       id="rect746-0-5"
       style="fill:none;stroke-width:0.264583" />
    <polygon
       class="st12"
       points="290,471.5 290,469.9 290.7,469.9 290.7,471.5 291.3,470.7 291.8,471.2 290.3,472.8 294.9,472.8 294.9,471.2 294.3,471.9 293.8,471.4 295.3,469.9 296.8,471.4 296.3,471.9 295.6,471.2 295.6,472.8 298.5,472.8 298.5,484.1 287.1,484.1 287.1,472.8 290.3,472.8 288.8,471.2 289.3,470.7 "
       id="polygon927-8-7"
       style="fill:#ffffff"
       transform="matrix(0.26458333,0,0,0.26458333,89.953893,-56.702477)" />
    <polygon
       class="st8"
       points="297.8,483.4 297.8,473.5 287.8,473.5 287.8,483.4 "
       id="polygon929-5-1"
       style="fill:#cccccc;fill-opacity:1"
       transform="matrix(0.26458333,0,0,0.26458333,89.953893,-56.702477)" />
    <g
       id="g975-2-7-4"
       transform="matrix(0.18485398,0,0,0.18485398,109.25961,-23.298775)"
       style="fill:#ffffff">
      <path
         class="st55"
         d="m 314.4,504.9 -0.7,-4 c 0,-0.2 -0.3,-0.4 -0.4,-0.5 -0.3,-0.2 -0.7,-0.2 -1.4,-0.2 -0.7,0 -1.1,0.1 -1.4,0.2 -0.1,0.1 -0.4,0.3 -0.4,0.5 l -0.7,4 c 0,0.2 0.1,0.4 0.3,0.5 0,0 0,0 0.1,0 0.2,0 0.4,-0.1 0.4,-0.3 v 0 l 0.6,-3.4 h 0.2 c -0.2,1.5 -0.4,2.7 -0.6,3.8 0,0.3 0.1,0.5 0.4,0.6 v 4 h 0.5 c 0.3,0 0.5,-0.2 0.5,-0.5 v -3.4 h 0.3 v 3.4 c 0,0.3 0.2,0.5 0.5,0.5 h 0.5 v -4 c 0.3,-0.1 0.5,-0.3 0.4,-0.6 -0.2,-1.1 -0.4,-2.3 -0.6,-3.8 h 0.2 l 0.6,3.4 c 0,0.2 0.2,0.3 0.4,0.3 0,0 0,0 0.1,0 0.1,0 0.2,-0.3 0.2,-0.5 z m -2.6,-5 c 0.5,0 0.9,-0.4 0.9,-0.9 0,-0.5 -0.4,-0.9 -0.9,-0.9 -0.5,0 -0.9,0.4 -0.9,0.9 0,0.5 0.4,0.9 0.9,0.9 z"
         id="path971-7-0-3"
         style="fill:#ffffff" />
      <path
         class="st55"
         d="m 319.3,501 c 0,-0.1 -0.1,-0.3 -0.1,-0.3 -0.5,-0.4 -1,-0.5 -1.9,-0.5 -0.9,0 -1.4,0.2 -1.9,0.5 -0.1,0.1 -0.1,0.2 -0.1,0.3 l -0.2,4 c 0,0.2 0.2,0.4 0.4,0.4 0.2,0 0.4,-0.2 0.4,-0.4 l 0.1,-3.3 h 0.2 l -0.1,2.6 v 5.8 h 0.5 c 0.3,0 0.5,-0.2 0.5,-0.5 v -4.4 h 0.3 v 4.4 c 0,0.3 0.2,0.5 0.5,0.5 h 0.5 v -5.8 l -0.1,-2.6 h 0.2 l 0.1,3.3 c 0,0.2 0.2,0.4 0.4,0.4 0.2,0 0.4,-0.2 0.4,-0.4 z m -2,-1.1 c 0.5,0 0.9,-0.4 0.9,-0.9 0,-0.5 -0.4,-0.9 -0.9,-0.9 -0.5,0 -0.9,0.4 -0.9,0.9 0,0.5 0.4,0.9 0.9,0.9 z"
         id="path973-0-7-2"
         style="fill:#ffffff" />
    </g>
  </g>
</svg>
